<?xml version="1.0" standalone="no"?><!DOCTYPE svg PUBLIC "-//W3C//DTD SVG 1.1//EN" "http://www.w3.org/Graphics/SVG/1.1/DTD/svg11.dtd"><svg t="1749989039488" class="icon" viewBox="0 0 1024 1024" version="1.1" xmlns="http://www.w3.org/2000/svg" p-id="22712" width="200" height="200" xmlns:xlink="http://www.w3.org/1999/xlink"><path d="M513.215867 1023.987303A511.987098 511.987098 0 1 1 1023.974196 517.324871 507.174419 507.174419 0 0 1 513.215867 1023.987303zM75.569296 511.181025A438.568148 438.568148 0 1 0 513.625457 75.480005C272.479534 75.6848 74.545321 273.414217 75.569296 511.181025z" p-id="22713" fill="#8a8a8a"></path><path d="M555.813194 643.683286h-92.157678c0-52.427479-2.76473-104.240573 43.314108-142.332413 22.22024-18.329138 43.109314-38.194238 64.919964-57.035363a80.074782 80.074782 0 0 0 29.080868-73.418949A47.819595 47.819595 0 0 0 573.42555 332.702323c-58.980914-29.490457-129.430338-21.298663-155.439283 57.752145l-5.119871 15.359613-91.338499-12.492486c12.594883-59.697696 39.423007-108.541265 95.843985-134.447811a230.394194 230.394194 0 0 1 182.369805-7.475012c45.362057 17.100369 76.798065 52.837069 98.40392 94.308023 20.479484 38.706225 8.191794 78.026834-13.311665 114.070726a238.278795 238.278795 0 0 1-79.869987 81.917935c-32.971969 20.479484-45.669249 51.19871-48.741172 88.164179 0.307192 4.095897 0 8.601383-0.409589 13.823651zM556.120386 772.601638h-90.724114v-99.2231h90.724114v99.2231z" p-id="22714" fill="#8a8a8a"></path></svg>