<?xml version="1.0" standalone="no"?><!DOCTYPE svg PUBLIC "-//W3C//DTD SVG 1.1//EN" "http://www.w3.org/Graphics/SVG/1.1/DTD/svg11.dtd"><svg t="1731597955785" class="icon" viewBox="0 0 1024 1024" version="1.1" xmlns="http://www.w3.org/2000/svg" p-id="17807" xmlns:xlink="http://www.w3.org/1999/xlink" width="200" height="200"><path d="M137.938824 192.662588c-73.075451 0-133.089882 60.054588-133.089883 133.130039v362.977883c0 73.075451 60.014431 133.089882 133.089883 133.089882h750.150274c73.075451 0 133.089882-60.014431 133.089882-133.089882V325.792627c0-73.075451-60.014431-133.089882-133.089882-133.089882z m0 72.593569h750.150274a59.974275 59.974275 0 0 1 60.496314 60.496314v363.018039a59.974275 59.974275 0 0 1-60.496314 60.496314H137.938824a59.974275 59.974275 0 0 1-60.496314-60.496314V325.792627a59.974275 59.974275 0 0 1 60.496314-60.496313z m169.391686 145.257412a24.19451 24.19451 0 0 0-24.204549 24.194509v145.167059a24.214588 24.214588 0 0 0 24.204549 24.19451h72.633725a24.19451 24.19451 0 1 0 0-48.38902h-48.439215V531.476078h36.301804a24.19451 24.19451 0 0 0 0-48.389019h-36.301804v-24.204549h48.439215a24.19451 24.19451 0 1 0 0-48.38902z m184.510745 0a60.496314 60.496314 0 1 0 0 120.982588h21.172706a12.107294 12.107294 0 0 1 0 24.204549h-26.423216c-8.272314 0-15.058824-6.154039-16.966274-8.031373a24.196518 24.196518 0 1 0-34.213647 34.223687c6.676078 6.676078 25.017725 22.206745 51.2 22.206745h26.423215a60.496314 60.496314 0 1 0 0-120.982589h-21.192784a12.107294 12.107294 0 0 1 0-24.204549h21.172706c7.358745 0 13.111216 5.019608 13.141333 5.019608a24.19451 24.19451 0 1 0 34.213647-34.213647c-2.007843-1.957647-19.988078-19.184941-47.35498-19.184941z m185.544784 0c-43.911529 0-79.681255 43.409569-79.681255 96.788078s35.769725 96.788078 79.681255 96.788078a70.635922 70.635922 0 0 0 62.775216-37.74745A24.19451 24.19451 0 1 0 696.721569 545.039059a22.377412 22.377412 0 0 1-19.33553 10.651608c-16.63498 0-31.282196-22.628392-31.282196-48.399059s14.647216-48.399059 31.282196-48.399059a22.256941 22.256941 0 0 1 19.536314 11.043137 24.197522 24.197522 0 0 0 43.289098-21.63451 70.696157 70.696157 0 0 0-62.825412-37.787607z m0 0" p-id="17808" fill="#1e90ff"></path></svg>