<?xml version="1.0" standalone="no"?><!DOCTYPE svg PUBLIC "-//W3C//DTD SVG 1.1//EN" "http://www.w3.org/Graphics/SVG/1.1/DTD/svg11.dtd"><svg t="1731597819945" class="icon" viewBox="0 0 1024 1024" version="1.1" xmlns="http://www.w3.org/2000/svg" p-id="14210" xmlns:xlink="http://www.w3.org/1999/xlink" width="200" height="200"><path d="M0 0h1024v1024H0z" fill="#1e90ff" fill-opacity=".01" p-id="14211"></path><path d="M512 46.912l-6.208 0.512a38.4 38.4 0 0 0-32.192 37.888l-0.064 302.912H85.312a38.4 38.4 0 0 0-38.4 38.4v512a38.4 38.4 0 0 0 38.4 38.4h853.376a38.4 38.4 0 0 0 38.4-38.4V85.376a38.4 38.4 0 0 0-38.4-38.4H512z m388.224 76.8v776.512H123.712v-435.2H512l6.208-0.448a38.4 38.4 0 0 0 32.192-37.888l-0.064-302.976h349.888z" fill="#1e90ff" p-id="14212"></path><path d="M420.864 570.24a38.4 38.4 0 0 1 58.752 48.896l-4.48 5.376-58.24 58.112 58.24 58.24a38.4 38.4 0 0 1 4.48 48.96l-4.48 5.312a38.4 38.4 0 0 1-48.96 4.48l-5.312-4.48-85.376-85.312a38.4 38.4 0 0 1-4.416-48.96l4.48-5.376L420.8 570.24z" fill="#1e90ff" p-id="14213"></path><path d="M789.312 452.288a38.4 38.4 0 0 1 37.888 32.128l0.512 6.272v192a38.4 38.4 0 0 1-32.128 37.888l-6.272 0.512H426.688a38.4 38.4 0 0 1-6.272-76.288l6.272-0.512 324.224-0.064v-153.6a38.4 38.4 0 0 1 32.192-37.824l6.208-0.512z" fill="#1e90ff" p-id="14214"></path></svg>