<?xml version="1.0" standalone="no"?><!DOCTYPE svg PUBLIC "-//W3C//DTD SVG 1.1//EN" "http://www.w3.org/Graphics/SVG/1.1/DTD/svg11.dtd"><svg t="1749640486034" class="icon" viewBox="0 0 1024 1024" version="1.1" xmlns="http://www.w3.org/2000/svg" p-id="5476" xmlns:xlink="http://www.w3.org/1999/xlink" width="200" height="200"><path d="M236.307692 0v536.694154l16.817231 14.690461H354.461538V275.692308l273.132308 275.692307H827.076923v78.769231h-121.462154L827.076923 752.758154h-211.731692l113.270154 229.651692L630.153846 1024l-135.286154-240.876308L354.461538 902.577231V630.153846H230.203077L78.769231 827.076923l-78.769231-39.384615 157.538462-208.935385V0h78.76923z m39.384616 827.076923v39.384615l-59.076923 78.769231H275.692308v39.384616H157.538462v-39.384616l59.076923-78.769231H157.538462v-39.384615h118.153846zM329.767385 0l27.529846 93.262769L382.818462 0H433.230769L380.297846 149.700923l-2.599384 6.971077c-5.198769 13.272615-10.476308 22.449231-15.872 27.569231-8.900923 8.467692-22.449231 12.681846-40.605539 12.681846-7.404308 0-18.786462-1.063385-34.225231-3.150769l-4.01723-37.45477 5.710769 1.575385c5.828923 1.417846 12.130462 2.087385 18.904615 2.087385a23.197538 23.197538 0 0 0 14.690462-4.332308c3.702154-2.914462 6.892308-8.113231 9.452307-15.556923L275.692308 0h54.075077z m588.406153 669.538462l27.096616-50.727385 23.000615 50.727385H1024l-45.528615-82.471385L1020.967385 512h-52.696616l-23.000615 43.913846L925.459692 512H868.824615l42.929231 75.067077L866.461538 669.538462h51.712z" p-id="5477" fill="#1e90ff"></path></svg>