<?xml version="1.0" standalone="no"?><!DOCTYPE svg PUBLIC "-//W3C//DTD SVG 1.1//EN" "http://www.w3.org/Graphics/SVG/1.1/DTD/svg11.dtd"><svg t="1731071831255" class="icon" viewBox="0 0 1024 1024" version="1.1" xmlns="http://www.w3.org/2000/svg" p-id="7005" xmlns:xlink="http://www.w3.org/1999/xlink" width="200" height="200"><path d="M790.8 352c48.3-48.3 48.3-126.8 0-175.2l-76.9-76.9c-48.3-48.3-126.8-48.3-175.2 0L100.2 538.4C76.8 561.8 64 593 64 626c0 33.1 12.9 64.2 36.2 87.6l76.9 76.9c24.2 24.2 55.9 36.2 87.6 36.2 31.7 0 63.5-12.1 87.6-36.2L790.8 352zM288.7 677l25.1 25.7-24.6 24.6c-13.6 13.5-35.4 13.5-48.9 0l-76.9-76.9c-6.6-6.6-10.1-15.2-10.1-24.4s3.6-17.9 10.1-24.5L601.9 163c13.5-13.5 35.4-13.5 48.9 0l76.9 76.9c13.5 13.5 13.5 35.4 0 48.9l-32 31.9-60.3-61.2c-17.3-17.5-45.6-17.7-63.2-0.4-17.5 17.3-17.7 45.6-0.4 63.2l60.7 61.6-43 43-24.3-24.9c-17.2-17.6-45.6-18-63.2-0.8s-18 45.6-0.8 63.2l25.1 25.7-43.3 43.3-60.3-61.2c-17.3-17.5-45.6-17.7-63.2-0.4-17.5 17.3-17.7 45.6-0.4 63.2l60.7 61.7-42.8 42.8-24.3-24.9c-17.2-17.7-45.6-18-63.2-0.8-17.7 17.2-18 45.6-0.8 63.2zM946.9 331.8c-17.4-17.4-45.7-17.4-63.2 0L334.5 881c-17.4 17.4-17.4 45.7 0 63.2 8.7 8.7 20.1 13.1 31.6 13.1s22.9-4.4 31.6-13.1L947 394.9c17.3-17.4 17.3-45.6-0.1-63.1z" p-id="7006" fill="#1e90ff"></path></svg>