<?xml version="1.0" standalone="no"?><!DOCTYPE svg PUBLIC "-//W3C//DTD SVG 1.1//EN" "http://www.w3.org/Graphics/SVG/1.1/DTD/svg11.dtd"><svg t="1731072078569" class="icon" viewBox="0 0 1029 1024" version="1.1" xmlns="http://www.w3.org/2000/svg" p-id="8111" xmlns:xlink="http://www.w3.org/1999/xlink" width="200.9765625" height="200"><path d="M978.488889 233.244444c17.066667 0 34.133333-17.066667 34.133333-34.133333v-170.666667c0-11.377778-17.066667-28.444444-34.133333-28.444444h-170.666667c-17.066667 0-34.133333 17.066667-34.133333 34.133333v51.2H233.244444V34.133333c0-17.066667-17.066667-34.133333-34.133333-34.133333h-170.666667C17.066667 0 0 17.066667 0 34.133333v170.666667c0 17.066667 17.066667 34.133333 34.133333 34.133333h51.2V796.444444H34.133333c-17.066667 0-34.133333 17.066667-34.133333 34.133334v170.666666c0 5.688889 17.066667 22.755556 34.133333 22.755556h170.666667c17.066667 0 34.133333-17.066667 34.133333-34.133333v-51.2h551.822223v51.2c0 17.066667 17.066667 34.133333 34.133333 34.133333h170.666667c17.066667 0 34.133333-17.066667 34.133333-34.133333v-170.666667c0-17.066667-17.066667-34.133333-34.133333-34.133333h-51.2V233.244444h34.133333z m-136.533333-170.666666h102.4V170.666667h-102.4V62.577778z m-694.044445 398.222222c0-5.688889 5.688889-5.688889 0 0L455.111111 153.6h147.911111l-449.422222 455.111111-5.688889-147.911111z m-85.333333-398.222222H170.666667V170.666667H62.577778V62.577778z m136.533333 170.666666c17.066667 0 34.133333-17.066667 34.133333-34.133333v-51.2h136.533334L147.911111 369.777778V233.244444h51.2z m-51.2 460.8l540.444445-546.133333h96.711111v39.822222L187.733333 790.755556h-39.822222v-96.711112z m-85.333333 267.377778V853.333333H170.666667v102.4l-108.088889 5.688889z m802.133333-398.222222l-301.511111 307.2-5.688889 5.688889H409.6l449.422222-455.111111 5.688889 142.222222z m85.333333 398.222222h-108.088888V853.333333h102.4l5.688888 108.088889z m-136.533333-170.666666c-17.066667 0-34.133333 17.066667-34.133333 34.133333v51.2h-136.533334l221.866667-221.866667v136.533334h-51.2z m51.2-460.8l-540.444444 546.133333H233.244444v-39.822222L824.888889 233.244444h39.822222v96.711112z" fill="#1e90ff" p-id="8112"></path></svg>