<?xml version="1.0" standalone="no"?><!DOCTYPE svg PUBLIC "-//W3C//DTD SVG 1.1//EN" "http://www.w3.org/Graphics/SVG/1.1/DTD/svg11.dtd"><svg t="1731072138523" class="icon" viewBox="0 0 1024 1024" version="1.1" xmlns="http://www.w3.org/2000/svg" p-id="9376" xmlns:xlink="http://www.w3.org/1999/xlink" width="200" height="200"><path d="M895.930068 0a127.99001 127.99001 0 1 1-71.47531 234.193275L400.921595 625.160092A270.3149 270.3149 0 0 1 526.181151 853.266731v0.056885L775.221267 853.266731A128.046894 128.046894 0 0 1 1023.920077 895.930068a127.99001 127.99001 0 0 1-248.784136 42.407356L42.57801 938.593404a42.521125 42.521125 0 0 1-42.521126-42.521125v-0.056885c0-16.411163 9.300607-30.632276 22.895991-37.771274l750.590301-692.767259A127.99001 127.99001 0 0 1 895.930068 0z m0 839.045619a56.884449 56.884449 0 1 0 0 113.768897 56.884449 56.884449 0 0 0 0-113.768897z m-560.965992-153.019167l-181.290738 167.354048 287.18114-0.056884V853.266731a185.045112 185.045112 0 0 0-105.890402-167.240279zM895.930068 71.105561a56.884449 56.884449 0 1 0 0 113.768897 56.884449 56.884449 0 0 0 0-113.768897z" p-id="9377" fill="#1e90ff"></path></svg>