<?xml version="1.0" encoding="utf-8"?>
<!-- Generator: Adobe Illustrator 26.0.0, SVG Export Plug-In . SVG Version: 6.00 Build 0)  -->
<svg version="1.1" id="图层_1" xmlns="http://www.w3.org/2000/svg" xmlns:xlink="http://www.w3.org/1999/xlink" x="0px" y="0px"
	 viewBox="0 0 200 200" style="enable-background:new 0 0 200 200;" xml:space="preserve">
<style type="text/css">
	.st0{fill:#1E90FF;}
</style>
<path class="st0" d="M91.3,10.1c-33.6,0-60.9,27.3-60.9,60.9l0,0v20.8c0,2.9,2.4,5.3,5.3,5.3H37v17.6c0,7,0,10.7,0.4,13.8
	c2.9,25.6,23.1,45.7,48.7,48.6c3.1,0.4,6.8,0.4,13.8,0.4h0.4c7,0,10.7,0,13.8-0.4c25.6-2.9,45.7-23.1,48.7-48.6
	c0.4-3.1,0.4-6.8,0.4-13.8V79.5c0-7,0-10.7-0.4-13.8C159.8,40.1,139.6,20,114,17c-3.1-0.4-6.8-0.4-13.8-0.4H100v-1.2
	c0-2.9-2.4-5.3-5.3-5.3l0,0H91.3z M41.3,97.1h53.4c2.9,0,5.3-2.4,5.3-5.3V21c7.2,0,10.7,0,13.5,0.3c23.5,2.7,42.1,21.3,44.8,44.8
	c0.3,2.9,0.3,6.3,0.3,13.5v34.8c0,7.2,0,10.7-0.3,13.5c-2.7,23.5-21.3,42.1-44.8,44.8c-2.9,0.3-6.3,0.3-13.5,0.3s-10.7,0-13.5-0.3
	C63,170,44.4,151.4,41.7,127.9c-0.3-2.9-0.3-6.3-0.3-13.5C41.3,114.5,41.3,97.1,41.3,97.1z"/>
<path class="st0" d="M123,66.2l18.4,23.4h-14.7v24.7h24.8V99.6l23.4,18.4l-23.4,18.4v-14.7h-24.8v24.8l14.7,0L123,169.8l-18.4-23.4
	l14.7,0v-24.8H94.6l0,14.7L71.2,118l23.4-18.4l0,14.7h24.7V89.6h-14.7L123,66.2z"/>
</svg>
