<?xml version="1.0" standalone="no"?><!DOCTYPE svg PUBLIC "-//W3C//DTD SVG 1.1//EN" "http://www.w3.org/Graphics/SVG/1.1/DTD/svg11.dtd"><svg t="1731573259405" class="icon" viewBox="0 0 1024 1024" version="1.1" xmlns="http://www.w3.org/2000/svg" p-id="2738" xmlns:xlink="http://www.w3.org/1999/xlink" width="200" height="200"><path d="M629.359304 617.382957l-91.759304 119.006608v41.672348h160.278261v-46.08H603.714783l68.919652-89.35513c8.281043-10.685217 14.558609-21.103304 18.832695-31.254261 4.274087-10.150957 6.41113-21.23687 6.411131-33.257739v-6.811826c0-13.623652-3.33913-26.045217-10.017391-37.264696a69.765565 69.765565 0 0 0-28.048696-26.846609 85.214609 85.214609 0 0 0-42.073044-10.017391c-16.562087 0-30.98713 3.205565-43.27513 9.616696a69.89913 69.89913 0 0 0-28.493913 26.445913 76.132174 76.132174 0 0 0-9.572174 38.466782v9.616696h50.888348v-6.411131c0-10.418087 2.537739-18.565565 7.568696-24.442434a26.089739 26.089739 0 0 1 20.880695-8.815305 26.713043 26.713043 0 0 1 20.836174 8.414609c5.342609 5.609739 8.013913 13.222957 8.013913 22.839652v5.609739c0 12.288-5.075478 25.243826-15.226435 38.867479zM381.595826 667.469913L333.913043 715.152696l30.45287 30.853565 48.083478-48.083478 47.682783 48.083478 30.452869-30.853565-47.682782-47.682783 47.682782-47.682783-30.452869-30.853565-47.682783 47.682783-48.083478-47.682783-30.45287 30.45287 47.682783 48.083478z" fill="#1e90ff" p-id="2739"></path><path d="M155.826087 363.609043a311.652174 311.652174 0 0 1 311.652174-311.652173h17.318956c15.003826 0 27.202783 12.198957 27.202783 27.202782v6.188522h1.068522c35.750957 0 54.717217 0 70.789565 1.825391a283.202783 283.202783 0 0 1 249.09913 249.099131c1.825391 16.072348 1.825391 35.038609 1.825392 70.789565v180.224c0 35.750957 0 54.717217-1.825392 70.789565a283.202783 283.202783 0 0 1-249.09913 249.054609c-16.072348 1.869913-35.038609 1.869913-70.789565 1.869913h-2.137044c-35.750957 0-54.717217 0-70.789565-1.869913a283.202783 283.202783 0 0 1-249.09913-249.054609c-1.825391-16.072348-1.825391-35.038609-1.825392-70.789565v-90.112h-6.188521A27.202783 27.202783 0 0 1 155.826087 469.971478V363.609043z m328.97113 133.565218H211.478261v89.043478c0 37.042087 0 54.672696 1.691826 69.320348a260.941913 260.941913 0 0 0 229.509565 229.509565c14.692174 1.691826 32.278261 1.691826 69.320348 1.691826s54.672696 0 69.320348-1.691826a260.941913 260.941913 0 0 0 229.509565-229.509565c1.691826-14.692174 1.691826-32.278261 1.691826-69.320348v-178.086956c0-37.042087 0-54.672696-1.691826-69.320348a260.941913 260.941913 0 0 0-229.509565-229.509565c-14.692174-1.691826-32.278261-1.691826-69.320348-1.691827v362.362435a27.202783 27.202783 0 0 1-27.202783 27.202783z" fill="#1e90ff" p-id="2740"></path></svg>