<?xml version="1.0" encoding="utf-8"?>
<!-- Generator: Adobe Illustrator 26.0.0, SVG Export Plug-In . SVG Version: 6.00 Build 0)  -->
<svg version="1.1" id="图层_1" xmlns="http://www.w3.org/2000/svg" xmlns:xlink="http://www.w3.org/1999/xlink" x="0px" y="0px"
	 viewBox="0 0 200 200" style="enable-background:new 0 0 200 200;" xml:space="preserve">
<style type="text/css">
	.st0{fill:#1E90FF;}
</style>
<path class="st0" d="M108.7,10.1c33.6,0,60.9,27.3,60.9,60.9l0,0v20.8c0,2.9-2.4,5.3-5.3,5.3H163v17.6c0,7,0,10.7-0.4,13.8
	c-2.9,25.6-23.1,45.7-48.7,48.6c-3.1,0.4-6.8,0.4-13.8,0.4h-0.4c-7,0-10.7,0-13.8-0.4c-25.6-2.9-45.7-23.1-48.7-48.6
	c-0.4-3.1-0.4-6.8-0.4-13.8V79.5c0-7,0-10.7,0.4-13.8C40.2,40.1,60.4,20,86,17c3.1-0.4,6.8-0.4,13.8-0.4h0.2v-1.2
	c0-2.9,2.4-5.3,5.3-5.3H108.7z M158.7,97.1h-53.4c-2.9,0-5.3-2.4-5.3-5.3l0,0V21c-7.2,0-10.7,0-13.5,0.3
	C62.9,24,44.3,42.6,41.6,66.2c-0.3,2.9-0.3,6.3-0.3,13.5v34.8c0,7.2,0,10.7,0.3,13.5c2.7,23.5,21.3,42.1,44.8,44.8
	c2.9,0.3,6.3,0.3,13.5,0.3s10.7,0,13.5-0.3c23.5-2.7,42.1-21.3,44.8-44.8c0.3-2.9,0.3-6.3,0.3-13.5L158.7,97.1L158.7,97.1z"/>
<path class="st0" d="M77,66.2l18.4,23.4H80.7v24.7h24.8V99.6l23.4,18.4l-23.4,18.4v-14.7H80.7v24.8l14.7,0L77,169.8l-18.4-23.4
	l14.7,0v-24.8H48.6l0,14.7L25.2,118l23.4-18.4l0,14.7h24.7V89.6H58.6L77,66.2z"/>
</svg>
