<?xml version="1.0" standalone="no"?><!DOCTYPE svg PUBLIC "-//W3C//DTD SVG 1.1//EN" "http://www.w3.org/Graphics/SVG/1.1/DTD/svg11.dtd"><svg t="1731573277732" class="icon" viewBox="0 0 1024 1024" version="1.1" xmlns="http://www.w3.org/2000/svg" p-id="2945" xmlns:xlink="http://www.w3.org/1999/xlink" width="200" height="200"><path d="M782.514087 42.963478a26.713043 26.713043 0 0 1 37.754435 0l111.304348 111.304348a26.713043 26.713043 0 0 1-37.754435 37.754435L828.104348 126.352696v316.416a26.713043 26.713043 0 1 1-53.426087 0V126.352696l-65.714087 65.669565a26.713043 26.713043 0 0 1-37.754435-37.754435l111.304348-111.304348z" fill="#1e90ff" p-id="2946"></path><path d="M589.913043 96.478609a11.130435 11.130435 0 0 0-11.130434-11.130435h-22.706087c-59.525565 0-104.759652 0-141.000348 2.31513-36.463304 2.359652-64.601043 7.123478-89.933913 16.962783a283.202783 283.202783 0 0 0-161.168696 161.168696c-9.839304 25.33287-14.60313 53.470609-16.918261 89.933913-2.359652 36.240696-2.359652 81.474783-2.359652 141.044869v68.830609c0 55.874783 0 85.481739 4.496696 110.458435a283.202783 283.202783 0 0 0 228.396522 228.396521c24.976696 4.541217 54.583652 4.541217 110.502956 4.541218h3.294609c55.919304 0 85.526261 0 110.458435-4.496696a283.202783 283.202783 0 0 0 228.396521-228.396522c4.541217-24.976696 4.541217-54.583652 4.541218-110.502956v-23.908174a11.130435 11.130435 0 1 0-22.26087 0v22.26087c0 57.922783-0.044522 85.437217-4.140522 108.187826a260.941913 260.941913 0 0 1-210.45426 210.454261c-22.750609 4.096-50.265043 4.140522-108.187827 4.140521-57.922783 0-85.437217-0.044522-108.187826-4.140521a260.941913 260.941913 0 0 1-210.454261-210.498783c-4.096-22.706087-4.140522-50.220522-4.140521-108.187826v-66.782609c0-60.015304 0-104.537043 2.31513-139.976348 2.226087-35.394783 6.767304-60.994783 15.449044-83.255652a260.941913 260.941913 0 0 1 148.524521-148.524522c22.26087-8.681739 47.905391-13.178435 83.255653-15.493565 35.483826-2.270609 79.961043-2.270609 140.020869-2.270609h22.26087a11.130435 11.130435 0 0 0 11.130434-11.130434z" fill="#1e90ff" p-id="2947"></path><path d="M556.521739 215.173565a54.405565 54.405565 0 1 0-108.81113 0V378.434783A54.405565 54.405565 0 0 0 556.521739 378.434783V215.173565z" fill="#1e90ff" p-id="2948"></path></svg>