<?xml version="1.0" standalone="no"?><!DOCTYPE svg PUBLIC "-//W3C//DTD SVG 1.1//EN" "http://www.w3.org/Graphics/SVG/1.1/DTD/svg11.dtd"><svg t="1731573395067" class="icon" viewBox="0 0 1024 1024" version="1.1" xmlns="http://www.w3.org/2000/svg" p-id="3726" xmlns:xlink="http://www.w3.org/1999/xlink" width="200" height="200"><path d="M512 160.768c30.052174 0 54.405565 24.397913 54.405565 54.450087V378.434783a54.405565 54.405565 0 0 1-108.81113 0V215.218087c0-30.052174 24.353391-54.450087 54.405565-54.450087z" fill="#1e90ff" p-id="3727"></path><path d="M510.931478 85.348174c-35.750957 0-54.717217 0-70.789565 1.825391a283.202783 283.202783 0 0 0-249.09913 249.099131c-1.825391 16.072348-1.825391 35.038609-1.825392 70.789565v180.224c0 35.750957 0 54.717217 1.825392 70.789565a283.202783 283.202783 0 0 0 249.09913 249.054609c16.072348 1.869913 35.038609 1.869913 70.789565 1.869913h2.137044c35.750957 0 54.717217 0 70.789565-1.869913a283.202783 283.202783 0 0 0 249.09913-249.054609c1.825391-16.072348 1.825391-35.038609 1.825392-70.789565V407.062261c0-35.750957 0-54.717217-1.825392-70.789565a283.202783 283.202783 0 0 0-249.09913-249.099131c-16.072348-1.825391-35.038609-1.825391-70.789565-1.825391h-2.137044z m70.38887 23.952696a260.941913 260.941913 0 0 1 229.509565 229.509565c1.691826 14.692174 1.691826 32.278261 1.691826 69.320348v178.086956c0 37.042087 0 54.672696-1.691826 69.320348a260.941913 260.941913 0 0 1-229.509565 229.509565c-14.692174 1.691826-32.278261 1.691826-69.320348 1.691826s-54.672696 0-69.320348-1.691826a260.941913 260.941913 0 0 1-229.509565-229.509565c-1.691826-14.692174-1.691826-32.278261-1.691826-69.320348v-178.086956c0-37.042087 0-54.672696 1.691826-69.320348a260.941913 260.941913 0 0 1 229.509565-229.509565c14.692174-1.691826 32.278261-1.691826 69.320348-1.691827s54.672696 0 69.320348 1.691827z" fill="#1e90ff" p-id="3728"></path></svg>