<?xml version="1.0" standalone="no"?><!DOCTYPE svg PUBLIC "-//W3C//DTD SVG 1.1//EN" "http://www.w3.org/Graphics/SVG/1.1/DTD/svg11.dtd"><svg t="1731573707157" class="icon" viewBox="0 0 1024 1024" version="1.1" xmlns="http://www.w3.org/2000/svg" p-id="4808" xmlns:xlink="http://www.w3.org/1999/xlink" width="200" height="200"><path d="M512 933.12a39.68 39.68 0 0 1-28.16-11.52l-118.186667-118.186667a40.106667 40.106667 0 0 1 0-56.32l3.84-3.84h85.333334v-175.36H280.746667v85.333334l-3.84 3.413333a40.106667 40.106667 0 0 1-56.32 0L102.4 540.16a40.106667 40.106667 0 0 1 0-56.32l118.186667-118.186667a40.106667 40.106667 0 0 1 56.32 0l3.84 3.84v85.333334h175.36V280.746667h-85.333334l-3.84-3.84a40.106667 40.106667 0 0 1 0-56.32l116.906667-118.186667a40.106667 40.106667 0 0 1 56.32 0l118.186667 118.186667a40.106667 40.106667 0 0 1 0 56.32l-3.84 3.84h-85.333334v175.786666h175.786667v-85.333333l3.84-3.84a40.106667 40.106667 0 0 1 56.32 0l122.026667 122.88a40.106667 40.106667 0 0 1-3.84 52.053333l-118.186667 118.186667a40.106667 40.106667 0 0 1-56.32 0l-3.84-3.84v-85.333333H567.466667v175.36h85.333333l3.413333 3.84a40.106667 40.106667 0 0 1 0 56.32l-116.053333 114.773333a39.68 39.68 0 0 1-28.16 11.52zM381.013333 768a14.506667 14.506667 0 0 0 2.986667 16.64l117.76 118.186667a14.506667 14.506667 0 0 0 20.48 0L640 785.493333a14.933333 14.933333 0 0 0 2.56-16.64H541.866667v-226.56H768v100.693334a14.08 14.08 0 0 0 16.64-2.56l118.186667-118.186667a14.08 14.08 0 0 0 0-20.053333L785.493333 384a14.08 14.08 0 0 0-17.493333-2.56v100.693333h-226.133333V256h101.12a14.506667 14.506667 0 0 0-2.986667-17.493333l-117.76-117.76a14.506667 14.506667 0 0 0-20.48 0L384 238.506667a14.933333 14.933333 0 0 0-2.986667 17.493333h100.693334v226.133333H256V381.44a14.506667 14.506667 0 0 0-17.493333 2.56l-118.186667 118.186667a14.08 14.08 0 0 0 0 20.053333L238.506667 640a14.933333 14.933333 0 0 0 16.64 2.56v-100.266667h226.986666V768z" fill="#1e90ff" p-id="4809"></path></svg>