<?xml version="1.0" standalone="no"?><!DOCTYPE svg PUBLIC "-//W3C//DTD SVG 1.1//EN" "http://www.w3.org/Graphics/SVG/1.1/DTD/svg11.dtd"><svg t="1731573203717" class="icon" viewBox="0 0 1024 1024" version="1.1" xmlns="http://www.w3.org/2000/svg" p-id="2532" xmlns:xlink="http://www.w3.org/1999/xlink" width="200" height="200"><path d="M467.478261 51.95687a311.652174 311.652174 0 0 0-311.652174 311.652173v106.362435c0 15.003826 12.198957 27.202783 27.202783 27.202783h6.188521v90.112c0 35.750957 0 54.717217 1.825392 70.789565a283.202783 283.202783 0 0 0 249.09913 249.054609c16.072348 1.869913 35.038609 1.869913 70.789565 1.869913h2.137044c35.750957 0 54.717217 0 70.789565-1.869913a283.202783 283.202783 0 0 0 249.09913-249.054609c1.825391-16.072348 1.825391-35.038609 1.825392-70.789565V407.062261c0-35.750957 0-54.717217-1.825392-70.789565a283.202783 283.202783 0 0 0-249.09913-249.099131c-16.072348-1.825391-35.038609-1.825391-70.789565-1.825391H512v-6.188522a27.202783 27.202783 0 0 0-27.202783-27.202782H467.478261z m-256 445.217391h273.318956a27.202783 27.202783 0 0 0 27.202783-27.202783V107.609043c37.042087 0 54.672696 0 69.320348 1.691827a260.941913 260.941913 0 0 1 229.509565 229.509565c1.691826 14.692174 1.691826 32.278261 1.691826 69.320348v178.086956c0 37.042087 0 54.672696-1.691826 69.320348a260.941913 260.941913 0 0 1-229.509565 229.509565c-14.692174 1.691826-32.278261 1.691826-69.320348 1.691826s-54.672696 0-69.320348-1.691826a260.941913 260.941913 0 0 1-229.509565-229.509565c-1.691826-14.692174-1.691826-32.278261-1.691826-69.320348v-89.043478z" fill="#1e90ff" p-id="2533"></path></svg>