<?xml version="1.0" standalone="no"?><!DOCTYPE svg PUBLIC "-//W3C//DTD SVG 1.1//EN" "http://www.w3.org/Graphics/SVG/1.1/DTD/svg11.dtd"><svg t="1762068021305" class="icon" viewBox="0 0 1024 1024" version="1.1" xmlns="http://www.w3.org/2000/svg" p-id="8167" xmlns:xlink="http://www.w3.org/1999/xlink" width="200" height="200"><path d="M407.445333 135.978667a35.562667 35.562667 0 0 1 41.152 18.090666 71.104 71.104 0 0 0 126.805334 0 35.562667 35.562667 0 0 1 41.173333-18.090666 390.528 390.528 0 0 1 161.706667 90.474666c11.477333 10.688 14.613333 27.669333 7.658666 41.770667a71.104 71.104 0 0 0 63.829334 102.506667l1.002666-0.021334a35.562667 35.562667 0 0 1 34.432 24.896c11.648 37.077333 17.92 76.501333 17.92 117.333334 0 26.944-2.752 53.290667-7.957333 78.741333a35.562667 35.562667 0 0 1-38.314667 28.266667 71.104 71.104 0 0 0-61.461333 116.586666c11.733333 13.909333 11.072 34.453333-1.557333 47.573334a391.018667 391.018667 0 0 1-170.069334 103.722666 35.562667 35.562667 0 0 1-44.010666-23.253333 71.168 71.168 0 0 0-135.509334 0 35.562667 35.562667 0 0 1-44.010666 23.253333 391.018667 391.018667 0 0 1-170.069334-103.722666 35.562667 35.562667 0 0 1-1.557333-47.573334 71.104 71.104 0 0 0-61.461333-116.586666 35.562667 35.562667 0 0 1-38.314667-28.266667 392.704 392.704 0 0 1-7.936-78.741333c0-40.832 6.250667-80.256 17.92-117.333334a35.562667 35.562667 0 0 1 34.410667-24.896h1.002666a71.104 71.104 0 0 0 63.829334-102.485333 35.562667 35.562667 0 0 1 7.68-41.770667 390.528 390.528 0 0 1 161.706666-90.474666z m-95.68 127.338666a142.272 142.272 0 0 1-111.274666 176.085334 321.024 321.024 0 0 0-6.4 110.464 142.250667 142.250667 0 0 1 107.52 204.16 320.021333 320.021333 0 0 0 90.517333 55.701333A142.08 142.08 0 0 1 512 744.042667a142.08 142.08 0 0 1 119.893333 65.706666 320 320 0 0 0 90.517334-55.701333 142.250667 142.250667 0 0 1 107.477333-204.16 323.562667 323.562667 0 0 0-6.378667-110.485333 142.272 142.272 0 0 1-111.274666-176.085334 319.424 319.424 0 0 0-90.453334-51.072A141.930667 141.930667 0 0 1 512 264.042667a141.952 141.952 0 0 1-109.781333-51.797334 319.445333 319.445333 0 0 0-90.453334 51.072z m40.234667 249.6a160 160 0 1 1 320 0 160 160 0 0 1-320 0z m160-88.874666a88.896 88.896 0 1 0 0 177.792 88.896 88.896 0 0 0 0-177.792z" fill="#1e90ff" p-id="8168"></path></svg>