<?xml version="1.0" standalone="no"?><!DOCTYPE svg PUBLIC "-//W3C//DTD SVG 1.1//EN" "http://www.w3.org/Graphics/SVG/1.1/DTD/svg11.dtd"><svg t="1766494327741" class="icon" viewBox="0 0 1024 1024" version="1.1" xmlns="http://www.w3.org/2000/svg" p-id="6532" xmlns:xlink="http://www.w3.org/1999/xlink" width="200" height="200"><path d="M512 128c211.2 0 384 172.8 384 384s-172.8 384-384 384-384-172.8-384-384 172.8-384 384-384m0-64C262.4 64 64 262.4 64 512s198.4 448 448 448 448-198.4 448-448-198.4-448-448-448z" fill="currentColor" p-id="6533"></path><path d="M646.4 332.8L512 467.2 377.6 332.8c-12.8-12.8-32-12.8-44.8 0s-12.8 32 0 44.8L467.2 512l-134.4 134.4c-12.8 12.8-12.8 32 0 44.8s32 12.8 44.8 0L512 556.8l134.4 134.4c12.8 12.8 32 12.8 44.8 0s12.8-32 0-44.8L556.8 512l134.4-134.4c12.8-12.8 12.8-32 0-44.8s-32-12.8-44.8 0z" fill="currentColor" p-id="6534"></path></svg>