<?xml version="1.0" standalone="no"?><!DOCTYPE svg PUBLIC "-//W3C//DTD SVG 1.1//EN" "http://www.w3.org/Graphics/SVG/1.1/DTD/svg11.dtd"><svg t="1766059831776" class="icon" viewBox="0 0 1024 1024" version="1.1" xmlns="http://www.w3.org/2000/svg" p-id="22840" xmlns:xlink="http://www.w3.org/1999/xlink" width="200" height="200"><path d="M932.847 71.997l80.363 73.447c-60.54 44.774-114.568 85.645-169.674 125.009-20.305 14.504-32.993 26.156-26.781 56.414 9.872 48.104-26.047 101.56-72.178 120.15-46.78 18.851-100.498 3.396-132.088-38.013-31.08-40.738-31.931-101.654-2-143.433 30.224-42.193 82.225-59.594 130.488-40.737 16.997 6.638 26.598 3.924 39.081-8.289 43.976-43.027 89.35-84.627 133.931-127.043 5.217-4.964 8.814-11.63 13.165-17.505h5.693zM703.708 264.872c-40.991-0.156-72.345 30.252-72.63 70.446-0.29 40.026 31.306 72.247 71.19 72.609 40.423 0.366 71.568-30.498 71.86-71.208 0.3-41.923-28.875-71.686-70.42-71.847zM91.356 913.074l-74.484-77.828c45.015-42.594 90.675-86.556 137.327-129.45 12.983-11.937 18.262-22.92 15.346-41.47-8.578-54.52 17.834-101.356 66.046-122.64 46.766-20.641 101.182-8.113 134.031 30.874 33.233 39.442 36.407 94.428 7.922 137.21-28.832 43.307-80.839 62.247-132.083 44.597-18.278-6.293-26.754-1.723-37.37 11.985-37.606 48.57-76.395 96.222-116.735 146.722z m191.824-340.77c-42.714-0.539-76.233 32.182-76.035 74.221 0.191 40.62 33.11 73.97 73.528 74.492 41.791 0.54 76.388-33.322 76.368-74.742-0.016-40.86-32.557-73.449-73.861-73.971z m245.651-39.097h325.83c-24.566 36.962-46.91 71.428-70.593 104.956-2.524 3.575-13.945 4.17-19.418 1.851-79.051-33.467-157.787-67.666-236.6-101.694 0.258-1.705 0.52-3.407 0.781-5.113z m-47.553 46.224c60.125 72.185 120.25 144.371 183.163 219.908-38.728 13.053-74.656 25.166-114.354 38.547L476.76 581.943c1.505-0.839 3.01-1.673 4.517-2.512z m-70.223-129.89l-320.53-71.335c24.9-24.871 45.746-46.552 67.789-66.937 4.06-3.754 14.698-5.365 19.373-2.741 78.776 44.178 157.088 89.191 235.501 134.015l-2.133 6.998z m24.248-186.014c21.64-11.035 40.904-20.92 60.239-30.658 4.013-2.024 8.296-3.508 14.549-6.11v176.02a1251.6 1251.6 0 0 1-4.329 1.645c-23.293-46.58-46.585-93.16-70.459-140.897z" fill="currentColor" p-id="22841"></path></svg>