<?xml version="1.0" standalone="no"?><!DOCTYPE svg PUBLIC "-//W3C//DTD SVG 1.1//EN" "http://www.w3.org/Graphics/SVG/1.1/DTD/svg11.dtd"><svg t="1765874692503" class="icon" viewBox="0 0 1024 1024" version="1.1" xmlns="http://www.w3.org/2000/svg" p-id="2965" xmlns:xlink="http://www.w3.org/1999/xlink" width="200" height="200"><path d="M650.06 750.92c-14.54 4.2-29.73-4.17-33.93-18.71l-36.06-124.65c-4.2-14.54 4.17-29.73 18.71-33.93 14.54-4.2 29.73 4.17 33.93 18.71l36.06 124.65c4.2 14.53-4.17 29.73-18.71 33.93zM371.77 750.92c14.54 4.2 29.73-4.17 33.93-18.71l36.06-124.65c4.2-14.54-4.17-29.73-18.71-33.93-14.54-4.2-29.73 4.17-33.93 18.71l-36.06 124.65c-4.2 14.53 4.17 29.73 18.71 33.93zM134.37 605.6c12.5 8.53 29.54 5.32 38.08-7.18l55.72-81.59c8.53-12.5 5.32-29.54-7.18-38.08-12.5-8.53-29.54-5.32-38.08 7.18l-55.72 81.59c-8.53 12.5-5.32 29.54 7.18 38.08zM887.47 605.6c-12.5 8.53-29.54 5.32-38.08-7.18l-55.72-81.59c-8.53-12.5-5.32-29.54 7.18-38.08 12.5-8.53 29.54-5.32 38.08 7.18l55.72 81.59c8.53 12.5 5.32 29.54-7.18 38.08z" fill="currentColor" p-id="2966"></path><path d="M968.72 348.52c0-20.18-16.36-36.53-36.53-36.53-15.86 0-29.35 10.11-34.4 24.23l-0.3-0.14 0.06-0.13c-0.25 0.53-25.49 53.7-85.6 105.81-79.87 69.25-180.92 104.36-300.34 104.36s-220.47-35.11-300.34-104.36c-52.7-45.69-78.59-92.18-84.35-103.31-4.37-15.28-18.43-26.46-35.11-26.46-20.18 0-36.53 16.36-36.53 36.53 0 6.42 1.66 12.46 4.57 17.7l-0.56 0.26c1.21 2.65 30.51 65.63 101.15 127.89 41.22 36.34 88.3 65.28 139.92 86.03 64.04 25.74 135.12 38.79 211.25 38.79s147.21-13.05 211.25-38.79c51.62-20.75 98.69-49.69 139.92-86.03 67.71-59.69 97.43-120.02 100.85-127.25a36.371 36.371 0 0 0 5.09-18.6z" fill="currentColor" p-id="2967"></path></svg>