<?xml version="1.0" standalone="no"?><!DOCTYPE svg PUBLIC "-//W3C//DTD SVG 1.1//EN" "http://www.w3.org/Graphics/SVG/1.1/DTD/svg11.dtd"><svg t="1766063446311" class="icon" viewBox="0 0 1024 1024" version="1.1" xmlns="http://www.w3.org/2000/svg" p-id="26811" xmlns:xlink="http://www.w3.org/1999/xlink" width="200" height="200"><path d="M1018.922667 460.8a256.042667 256.042667 0 0 0-250.88-204.16c-84.48 0-163.2 42.24-209.92 112l-249.6-144c8.32-19.84 12.8-41.6 12.8-63.36a157.098667 157.098667 0 0 0-46.08-113.28A155.136 155.136 0 0 0 161.962667 1.28a157.44 157.44 0 0 0-160 159.36 160.042667 160.042667 0 0 0 97.28 145.92 161.706667 161.706667 0 0 0 172.8-29.44l256 148.48a254.122667 254.122667 0 0 0 1.28 177.92L275.242667 750.08a160.938667 160.938667 0 0 0-202.88-21.12 160.512 160.512 0 0 0-60.16 194.56 160.938667 160.938667 0 0 0 243.328 69.546667 159.744 159.744 0 0 0 54.272-188.586667l249.6-144.64a256.256 256.256 0 0 0 311.04 87.68 254.933333 254.933333 0 0 0 148.48-286.72zM161.962667 256.64a99.413333 99.413333 0 0 1-96.64-96 98.56 98.56 0 0 1 96.64-96 98.773333 98.773333 0 0 1 95.36 96 97.92 97.92 0 0 1-95.36 96z m0 702.72c-33.92 0-65.92-17.92-82.56-48a95.36 95.36 0 0 1 0-96A94.122667 94.122667 0 0 1 161.962667 768a95.872 95.872 0 0 1 96 96 96.554667 96.554667 0 0 1-96 95.36z" fill="currentColor" p-id="26812"></path></svg>