<?xml version="1.0" standalone="no"?><!DOCTYPE svg PUBLIC "-//W3C//DTD SVG 1.1//EN" "http://www.w3.org/Graphics/SVG/1.1/DTD/svg11.dtd"><svg t="1764431622092" class="icon" viewBox="0 0 1024 1024" version="1.1" xmlns="http://www.w3.org/2000/svg" p-id="4759" xmlns:xlink="http://www.w3.org/1999/xlink" width="200" height="200"><path d="M744.448 472.746667a233.92 233.92 0 0 0-114.090667-164.949334c-105.749333-61.034667-239.274667-30.336-308.416 67.413334l-0.213333-0.128a42.688 42.688 0 0 1-59.946667 18.901333 42.688 42.688 0 0 1-12.906666-62.357333C342.4 193.706667 527.530667 149.269333 673.578667 233.6c114.453333 66.069333 172.437333 192.512 157.162666 316.266667h-0.277333a42.624 42.624 0 0 1-63.850667 34.133333l-111.381333-64.341333a42.624 42.624 0 0 1 42.602667-73.813334l46.613333 26.922667z m-464.192 76.48a233.941333 233.941333 0 0 0 114.24 165.802666c105.728 61.034667 239.253333 30.357333 308.394667-67.392l0.853333 0.490667 0.832-1.450667a42.688 42.688 0 0 1 58.282667-15.744 42.688 42.688 0 0 1 6.122666 69.653334c-95.424 130.368-275.221333 170.901333-417.706666 88.64-113.386667-65.450667-171.264-190.293333-157.269334-313.066667a42.624 42.624 0 0 1 63.914667-38.272l111.381333 64.341333a42.624 42.624 0 0 1-42.602666 73.813334l-46.442667-26.816z" fill="currentColor" p-id="4760"></path></svg>