<?xml version="1.0" standalone="no"?><!DOCTYPE svg PUBLIC "-//W3C//DTD SVG 1.1//EN" "http://www.w3.org/Graphics/SVG/1.1/DTD/svg11.dtd"><svg t="1765874668971" class="icon" viewBox="0 0 1024 1024" version="1.1" xmlns="http://www.w3.org/2000/svg" p-id="2795" xmlns:xlink="http://www.w3.org/1999/xlink" width="200" height="200"><path d="M509.06 850.41c-97.99 0-192.32-30.08-272.77-86.97C157.95 708.03 97.75 631 62.19 540.68a56.787 56.787 0 0 1-0.75-39.53c16.54-47.2 39.95-91.46 69.58-131.56 29.35-39.72 64.23-74.58 103.66-103.61 82.08-60.43 178.99-92.38 280.26-92.38s192.32 30.08 272.77 86.97c78.34 55.41 138.54 132.44 174.1 222.76a56.729 56.729 0 0 1 0.75 39.53c-16.54 47.2-39.96 91.47-69.59 131.56-29.35 39.72-64.23 74.58-103.66 103.61-82.08 60.43-178.99 92.38-280.26 92.38zM132.45 519.57c64.25 156.81 211.43 257.77 376.61 257.77s322.57-109.42 382.49-272.92C827.3 347.61 680.12 246.65 514.94 246.65c-169.61 0-322.57 109.43-382.49 272.92z" fill="currentColor" p-id="2796"></path><path d="M512 684.51c-95.12 0-172.51-77.39-172.51-172.52S416.88 339.48 512 339.48s172.51 77.39 172.51 172.51S607.12 684.51 512 684.51z m0-271.97c-54.84 0-99.45 44.61-99.45 99.45s44.61 99.45 99.45 99.45 99.45-44.61 99.45-99.45-44.61-99.45-99.45-99.45z" fill="currentColor" p-id="2797"></path></svg>