<?xml version="1.0" standalone="no"?><!DOCTYPE svg PUBLIC "-//W3C//DTD SVG 1.1//EN" "http://www.w3.org/Graphics/SVG/1.1/DTD/svg11.dtd"><svg t="1766059908923" class="icon" viewBox="0 0 1174 1024" version="1.1" xmlns="http://www.w3.org/2000/svg" p-id="25805" xmlns:xlink="http://www.w3.org/1999/xlink" width="229.296875" height="200"><path d="M1174.820571 740.937143V743.570286a31.012571 31.012571 0 0 1-6.070857 14.043428 376.393143 376.393143 0 0 1-19.894857 24.210286 525.824 525.824 0 0 1-126.610286 106.788571 315.904 315.904 0 0 1-95.085714 38.180572 247.734857 247.734857 0 0 1-109.056-1.755429 398.701714 398.701714 0 0 1-169.033143-97.938285 488.082286 488.082286 0 0 1-64.731428-69.558858 29.257143 29.257143 0 0 1 0-35.84c6.217143-8.484571 13.092571-16.384 19.968-24.210285a525.458286 525.458286 0 0 1 126.610285-106.788572 315.977143 315.977143 0 0 1 95.085715-38.180571 247.734857 247.734857 0 0 1 108.982857 1.755428 398.774857 398.774857 0 0 1 169.033143 97.938286 486.765714 486.765714 0 0 1 64.731428 69.558857 26.843429 26.843429 0 0 1 6.217143 14.043429v5.046857z m-298.569142-131.072a125.44 125.44 0 1 0 111.981714 124.342857 118.857143 118.857143 0 0 0-111.981714-124.416z m0 187.026286a62.683429 62.683429 0 1 1 55.954285-62.317715 59.392 59.392 0 0 1-55.954285 62.317715zM544.329143 386.121143a193.170286 193.170286 0 0 1-183.881143-193.243429A188.342857 188.342857 0 1 1 548.717714 386.121143z m4.388571-309.76a116.224 116.224 0 1 0 113.078857 116.150857A114.761143 114.761143 0 0 0 548.717714 76.507429z m352.182857 326.582857h5.266286a422.838857 422.838857 0 0 0-132.827428-154.112l-16.384-11.556571-5.339429 19.675428a220.379429 220.379429 0 0 1-20.845714 50.834286l-6.363429 11.264 10.24 7.753143A335.286857 335.286857 0 0 1 827.392 435.2l1.243429-1.243429a98.889143 98.889143 0 0 1 72.265142-31.305142z m-712.557714 563.785143a190.537143 190.537143 0 1 1 4.388572 0z m4.388572-308.004572a116.224 116.224 0 1 0 113.078857 116.150858 114.761143 114.761143 0 0 0-113.005715-116.077715zM194.706286 555.446857l16.969143 0.438857 1.974857-12.434285a340.553143 340.553143 0 0 1 138.605714-223.085715l10.459429-7.314285-5.997715-11.483429a220.672 220.672 0 0 1-19.163428-51.712l-4.681143-19.821714-16.749714 10.971428a424.740571 424.740571 0 0 0-188.269715 304.566857l-2.56 20.845715 19.894857-4.900572a208.896 208.896 0 0 1 49.517715-5.997714z m362.349714 385.974857a43.885714 43.885714 0 0 0 1.389714-4.754285 351.817143 351.817143 0 0 1-19.748571 0.585142 319.195429 319.195429 0 0 1-152.283429-38.4l-10.825143-5.851428-7.314285 10.24a217.014857 217.014857 0 0 1-37.229715 40.813714l-15.798857 13.458286 17.773715 10.386286a406.089143 406.089143 0 0 0 205.531428 56.027428c6.582857 0 13.165714 0 19.748572-0.512a102.985143 102.985143 0 0 1-1.389715-81.92z" fill="#917742" p-id="25806"></path></svg>